<svg width="100" height="100" viewBox="0 0 100 100" fill="none" xmlns="http://www.w3.org/2000/svg">
<path d="M43.3929 40.1116C42.0928 40.9807 40.9767 42.0974 40.1082 43.3979C39.2398 44.6983 38.636 46.1571 38.3313 47.691C37.7159 50.7887 38.3563 54.0039 40.1116 56.6295C41.8669 59.255 44.5933 61.0757 47.691 61.6911C50.7887 62.3064 54.0039 61.666 56.6295 59.9107C59.255 58.1554 61.0757 55.4291 61.6911 52.3314C62.3064 49.2337 61.666 46.0184 59.9107 43.3929C58.1554 40.7673 55.4291 38.9466 52.3314 38.3313C49.2337 37.7159 46.0184 38.3563 43.3929 40.1116ZM75.1562 24.8438C73.9955 23.683 72.5893 22.7679 71.0491 22.1652C67.0089 20.5804 58.192 20.6473 52.5 20.7143C51.5848 20.7143 50.7366 20.7366 50 20.7366C49.2634 20.7366 48.3929 20.7366 47.4554 20.7143C41.7634 20.6473 32.9911 20.558 28.9509 22.1652C27.4107 22.7679 26.0268 23.683 24.8438 24.8438C23.6607 26.0045 22.7679 27.4107 22.1652 28.9509C20.5804 32.9911 20.6696 41.8304 20.7143 47.5223C20.7143 48.4375 20.7366 49.2857 20.7366 50C20.7366 50.7143 20.7366 51.5625 20.7143 52.4777C20.6696 58.1696 20.5804 67.0089 22.1652 71.0491C22.7679 72.5893 23.683 73.9732 24.8438 75.1562C26.0045 76.3393 27.4107 77.2321 28.9509 77.8348C32.9911 79.4196 41.808 79.3527 47.5 79.2857C48.4152 79.2857 49.2634 79.2634 50 79.2634C50.7366 79.2634 51.6071 79.2634 52.5446 79.2857C58.2366 79.3527 67.0089 79.442 71.0491 77.8348C72.5893 77.2321 73.9732 76.317 75.1562 75.1562C76.3393 73.9955 77.2321 72.5893 77.8348 71.0491C79.442 67.0312 79.3527 58.2366 79.2857 52.5223C79.2857 51.5848 79.2634 50.7143 79.2634 49.9777C79.2634 49.2411 79.2634 48.3929 79.2857 47.433C79.3527 41.7411 79.442 32.9464 77.8348 28.9062C77.2321 27.3661 76.317 25.9821 75.1562 24.7991V24.8438ZM60.1786 34.7768C64.216 37.4763 67.0157 41.6691 67.9618 46.4329C68.9078 51.1967 67.9227 56.1411 65.2232 60.1786C62.5237 64.216 58.3309 67.0157 53.5671 67.9618C48.8033 68.9078 43.8589 67.9227 39.8214 65.2232C37.8223 63.888 36.1057 62.1721 34.7697 60.1735C33.4337 58.1749 32.5044 55.9327 32.035 53.575C31.5655 51.2173 31.565 48.7901 32.0335 46.4322C32.5021 44.0743 33.4304 41.8317 34.7656 39.8326C36.1008 37.8334 37.8167 36.1169 39.8153 34.7809C41.8139 33.4449 44.0561 32.5156 46.4138 32.0461C48.7716 31.5766 51.1987 31.5762 53.5566 32.0447C55.9146 32.5132 58.1571 33.4416 60.1562 34.7768H60.1786ZM66.6964 34.4866C66.0045 34.0179 65.4464 33.3482 65.1116 32.567C64.7768 31.7857 64.7098 30.9375 64.8661 30.0893C65.0223 29.2411 65.4464 28.5045 66.0268 27.9018C66.6071 27.2991 67.3884 26.8973 68.2143 26.7411C69.0402 26.5848 69.9107 26.6518 70.692 26.9866C71.4732 27.3214 72.1429 27.8571 72.6116 28.5491C73.0804 29.2411 73.3259 30.067 73.3259 30.9152C73.3259 31.4732 73.2143 32.0312 73.0134 32.5446C72.8125 33.058 72.4777 33.5268 72.0982 33.9286C71.7188 34.3304 71.2277 34.6429 70.7143 34.8661C70.2009 35.0893 69.6429 35.2009 69.0848 35.2009C68.2366 35.2009 67.4107 34.9554 66.7188 34.4866H66.6964ZM100 14.2857C100 6.40625 93.5938 0 85.7143 0H14.2857C6.40625 0 0 6.40625 0 14.2857V85.7143C0 93.5938 6.40625 100 14.2857 100H85.7143C93.5938 100 100 93.5938 100 85.7143V14.2857ZM79.6875 79.6875C75.5134 83.8616 70.4464 85.1786 64.7321 85.4688C58.8393 85.8036 41.1607 85.8036 35.2679 85.4688C29.5536 85.1786 24.4866 83.8616 20.3125 79.6875C16.1384 75.5134 14.8214 70.4464 14.5536 64.7321C14.2187 58.8393 14.2187 41.1607 14.5536 35.2679C14.8437 29.5536 16.1384 24.4866 20.3125 20.3125C24.4866 16.1384 29.5759 14.8214 35.2679 14.5536C41.1607 14.2187 58.8393 14.2187 64.7321 14.5536C70.4464 14.8437 75.5134 16.1384 79.6875 20.3125C83.8616 24.4866 85.1786 29.5536 85.4464 35.2679C85.7812 41.1384 85.7812 58.7946 85.4464 64.7098C85.1562 70.4241 83.8616 75.4911 79.6875 79.6652V79.6875Z" fill="#363020"/>
</svg>
